<?xml version="1.0" standalone="no"?>
<!DOCTYPE svg PUBLIC "-//W3C//DTD SVG 20010904//EN"
 "http://www.w3.org/TR/2001/REC-SVG-20010904/DTD/svg10.dtd">
<svg version="1.0" xmlns="http://www.w3.org/2000/svg"
 width="256.000000pt" height="256.000000pt" viewBox="0 0 256.000000 256.000000"
 preserveAspectRatio="xMidYMid meet">
<metadata>
Created by potrace 1.11, written by Peter Selinger 2001-2013
</metadata>
<g transform="translate(0.000000,256.000000) scale(0.100000,-0.100000)"
fill="#000000" stroke="none">
<path d="M1131 1822 c6 -14 14 -31 19 -37 4 -5 20 -32 35 -60 16 -27 89 -158
163 -290 74 -132 172 -307 219 -390 46 -82 90 -161 98 -175 9 -14 29 -51 47
-83 25 -46 34 -55 43 -45 7 7 138 238 292 513 155 275 290 517 302 538 11 21
21 41 21 46 0 4 -30 -3 -68 -15 -85 -29 -231 -62 -308 -69 -32 -4 -72 -8 -89
-11 -70 -12 -336 -4 -419 12 -11 2 -38 6 -61 9 -22 4 -74 15 -115 26 -41 11
-86 22 -99 25 -13 3 -39 11 -57 19 l-33 14 10 -27z"/>
<path d="M590 1448 c-118 -210 -229 -407 -246 -437 -17 -31 -59 -105 -94 -166
-34 -60 -65 -113 -67 -117 -2 -4 15 0 39 8 63 23 273 71 348 81 84 10 385 10
475 0 93 -11 191 -32 298 -63 49 -14 90 -24 92 -22 1 1 -32 64 -74 138 -43 74
-155 272 -250 440 -254 449 -295 520 -301 519 -3 0 -102 -171 -220 -381z"/>
</g>
</svg>
