<?xml version="1.0" encoding="utf-8"?>
<!-- Generator: Adobe Illustrator 22.0.1, SVG Export Plug-In . SVG Version: 6.00 Build 0)  -->
<svg version="1.1" id="Layer_1" xmlns="http://www.w3.org/2000/svg" xmlns:xlink="http://www.w3.org/1999/xlink" x="0px" y="0px"
	 viewBox="0 0 604 158" style="enable-background:new 0 0 604 158;" xml:space="preserve">
<style type="text/css">
	.st0{fill:#2698D4;}
	.st1{fill:#1D1E1C;}
</style>
<title>AgileVenture__BolzanoBozenBulsan</title>
<path class="st0" d="M127.9,59.4c-6.1-17.5-18.6-32.7-33.2-43.8c-4-3-8.2-5.7-12.5-8.1c0.6,0.1,1.2,0.1,1.8,0.2
	c2.7,0.3,2.6-3.8,0-4.2c-3.9-0.5-8.8-0.3-14.2-0.3c-0.6,0-1.1,0.1-1.7,0.2c-5.7-1.4-11.7-1.7-17.5-1C40,3.7,30.5,8.8,22.7,16
	c-27,24.6-26.7,72-4.3,99.6c5.4,6.6,12.4,11.8,20.3,15c8.7,3.6,18.2,4,27.4,2.7c1-0.1,2-0.3,3-0.5c9.5,7.6,18.8,15.3,28.5,22.8
	c1.3,1,3.1-0.4,3.1-1.8c0-9.1,0-18.1-0.4-27.2c8.1-3.7,15.2-9.3,20.8-16.2C132.4,95.7,133.9,76.6,127.9,59.4z M63.9,8.2
	c2.6-0.1,5.2,0.1,7.7,0.6C82,12.5,91.2,18.9,98.3,27.3c13.4,15.5,20.2,38,14.4,58c-1,3.6-2.5,7-4.5,10.2c0.9-6.2,0.7-12.6-0.5-18.8
	c-0.3-20.4-10.6-41.4-27.6-52.7c-7.6-5.1-16.8-7.4-26-6.5c2.9-0.9,6-1.5,9-1.9c0.7-0.1,0.7-1.1,0-1.1c-5.4,0.7-10.6,2.1-15.6,4.3
	c-5.4,1.6-10.4,4.2-14.9,7.7c1.3-1.7,2.8-3.3,4.3-4.8C44.4,14.5,53.8,9.8,63.9,8.2L63.9,8.2z M103.7,95.3c-1.9,5-4.7,9.7-8.3,13.8
	c-1.3,0.9-2.6,1.7-3.9,2.5c-0.1-0.4-0.2-0.8-0.2-1.1c-0.5-2.6-4.6-1.5-4,1.1c0.1,0.7,0.3,1.4,0.5,2c-1.2,0.6-2.5,1.1-3.8,1.6
	c-4.5,1.7-9.3,2.9-14.1,3.4c-1-1.4-1.9-2.9-2.8-4.5c-1.2-2.4-4.8-0.3-3.6,2.1c0.5,0.9,1,1.9,1.6,2.8c-1.3,0.1-2.6,0.1-3.9,0.1
	c-3.7-1-7.2-2.4-10.5-4.2c-17.9-9.8-28.6-31.3-29.6-51.2c-0.1-3,0-6,0.3-9c0.4-0.7,0.8-1.4,1.1-2.1c4.8-8.9,11.6-17.3,21.7-20.2
	c28.4-8.1,52.4,16.4,58.6,42.3c1.6,6.4,1.9,13.1,1.1,19.6C103.9,94.6,103.8,95,103.7,95.3L103.7,95.3z M88.8,117.7
	c0.1,0.3,0.2,0.6,0.2,0.8c-1.2,0.4-2.5,0.8-3.8,1.1c0.5-0.3,1-0.7,1.5-1C87.5,118.3,88.1,118,88.8,117.7z M82.6,124.3
	c-1.9,0.9-3.8,1.7-5.8,2.4c-0.6-0.6-1.1-1.1-1.6-1.7C77.7,125,80.2,124.8,82.6,124.3z M72.3,128.1c-0.7,0.2-1.4,0.3-2,0.5l-2.7-2.2
	c0.8-0.1,1.6-0.2,2.3-0.4l0.4-0.1C70.9,126.6,71.6,127.3,72.3,128.1z M27.3,103.5c-0.4-0.7-0.9-1.3-1.3-2
	c-6.7-10.7-9.9-23.2-9.1-35.8c0.1-0.3,0.2-0.6,0.3-0.9c0.3,4.8,1,9.5,2.3,14.1c4.2,15.6,13.5,29.9,27.1,38.4
	c-2.3-0.6-4.6-1.3-6.8-2.2c-2.2-1.8-4.4-3.6-6.4-5.5S29.2,105.6,27.3,103.5L27.3,103.5z M15.7,70.1c0.1,6,1.1,12,2.9,17.8
	c-1.7-4.4-2.9-9-3.6-13.6C15.2,72.8,15.4,71.4,15.7,70.1z M51.3,122.5c1.8,0.3,3.7,0.5,5.5,0.6l0.2,0.2l2.9,2.2h-0.2
	C56.8,124.8,53.9,123.8,51.3,122.5z M64.9,124.3c1.5,0.2,3,0.4,4.5,0.6v0.1c-1,0.2-2.1,0.4-3.1,0.5L64.9,124.3z M85.3,37.8
	c-10.8-8.9-24.4-13-38.2-10.5c-4.1,0.6-8,2-11.5,4c-4.3,2.8-8,6.3-11,10.4l-0.4,0.5c0.5-1.5,1.1-2.9,1.7-4.3
	c5.4-7.9,12.9-14.2,21.7-18.1c2.8-0.9,5.7-1.4,8.6-1.7c24.1-1.8,42,20.8,48.1,41.8c1,3.4,1.7,7,2.1,10.5
	C102.6,57.8,95,45.9,85.3,37.8z M28.3,33.1c0.7-1.2,1.4-2.4,2.2-3.5c2.4-2.1,5-3.9,7.7-5.5C34.5,26.6,31.2,29.7,28.3,33.1L28.3,33.1
	z M17.5,53.1c-1,2.1-2,4.2-2.8,6.4c0.6-5.4,2.2-10.7,4.6-15.6C18.5,46.9,17.9,50,17.5,53.1L17.5,53.1z M20.5,94.8
	c-2.4-3.7-4.2-7.7-5.1-12c-0.3-1.4-0.5-2.8-0.5-4.2C16.1,84.3,18,89.7,20.5,94.8L20.5,94.8z M60.8,129.6c0.9-0.4,1.4-1.3,1.3-2.3
	l2.6,2.1c-1.2,0.1-2.3,0.2-3.5,0.3L60.8,129.6z M80,129.8c3.8-1.4,7.5-3.4,10.8-5.7c0.5,1.5,1,3,1.4,4.5c-3.6,1.1-7.3,1.9-11,2.3
	C80.8,130.6,80.4,130.2,80,129.8L80,129.8z M92.5,115.8c1.2-0.7,2.4-1.4,3.5-2.1c-0.9,1.1-1.8,2.2-2.8,3.2L93,117L92.5,115.8z
	 M94.3,121.4c0.4-0.3,0.8-0.7,1.1-1l0.3-0.2c0.2,2.3,0.3,4.6,0.4,6.9C95.6,125.3,95,123.4,94.3,121.4L94.3,121.4z M103.2,98.6
	c-0.4,1.8-1,3.5-1.6,5.2c-1,1-2,1.9-3,2.8C100.4,104.1,101.9,101.5,103.2,98.6L103.2,98.6z M105.2,106.2c0.7-0.7,1.3-1.4,1.9-2.1
	c5.4-6.3,9-14,10.7-22.1c-0.3,4.7-1.4,9.4-3.2,13.7c-2.5,6-6.5,11.2-11.6,15.3C103.8,109.5,104.6,107.9,105.2,106.2L105.2,106.2z
	 M8.1,49.9C12.4,30.7,26,13.1,45.4,7.6c1.4-0.4,2.9-0.7,4.4-1c-7,2.5-13.6,6.3-19.3,11.1C18.9,27.3,10.5,41.2,7.1,56.1
	C7.3,54,7.7,51.9,8.1,49.9z M24.8,29.4c1.1-1.4,2.3-2.7,3.6-4c-3,4.1-5.5,8.7-7.3,13.5c-4.8,7.2-7.4,15.7-7.6,24.4
	c-1,3-1.7,6-2.1,9.2c-1,5.8-0.3,11.8,1.9,17.3c2.2,5,5.1,9.7,8.7,13.8c-4.4-4.5-7.8-10-9.9-16C5.2,68,12.1,45,24.8,29.4z
	 M56.1,129.9c-20.8-0.2-35.1-13.4-42.8-30.6c3.8,5.7,8.7,10.6,14.4,14.4c3.3,2.1,6.8,3.9,10.4,5.3c1.2,0.9,2.5,1.8,3.7,2.7l1.1,0.7
	l0,0c4.5,3.3,9.5,5.8,14.8,7.5L56.1,129.9z M75.1,132.4h1.5c5.6,5.5,11.9,10.2,18.9,13.9c0.3,0.2,0.7,0.3,1,0.3c0,1,0,2.1,0,3.1
	C89.3,144,82.2,138.2,75.1,132.4L75.1,132.4z M94.5,141c-4.4-2.6-8.5-5.7-12.2-9.1c3.5-0.5,6.9-1.2,10.3-2.3
	C93.7,133.4,94.3,137.2,94.5,141z M107.8,121.2c-2.4,1.6-4.9,3.1-7.6,4.3c-0.1-2.4-0.2-4.9-0.4-7.3c1.6-0.9,3.1-1.9,4.5-3
	c6.7-5.1,11.8-11.9,14.8-19.8c3.5-9.1,3.4-18.9,2-28.4c-1.7-10.3-5.2-20.3-10.3-29.4c-3.6-6.9-8.2-13.2-13.6-18.8
	c1.2,1,2.5,2,3.6,3.1c14,12.4,25.4,29.3,28.8,48C133.2,89.9,124.6,110,107.8,121.2L107.8,121.2z"/>
<path class="st1" d="M190.4,96.6c-0.3-0.6-0.5-1.3-0.7-1.9c-0.2-0.7-0.4-1.3-0.5-2c-1.2,1.4-2.7,2.5-4.4,3.4
	c-1.8,0.9-3.9,1.3-5.9,1.3c-3.7,0-6.6-1-8.7-3c-2.2-2.1-3.4-5.1-3.2-8.1c-0.1-3.3,1.5-6.4,4.2-8.2c2.8-1.9,6.9-2.9,12.4-2.9h5.1
	v-3.7c0.1-1.6-0.5-3.1-1.6-4.2c-1.3-1.1-2.9-1.6-4.6-1.5c-1,0-2.1,0.1-3.1,0.4c-0.8,0.2-1.5,0.6-2.2,1l-0.6,4H169v-8.3
	c2-1.3,4.1-2.4,6.4-3.2c2.5-0.9,5.1-1.3,7.8-1.3c4.7,0,8.4,1.1,11.3,3.4s4.3,5.5,4.3,9.7v15.5c0,0.6,0,1.1,0,1.6c0,0.5,0,1,0.1,1.5
	l3.1,0.4v6.1H190.4z M181.6,89.9c1.4,0,2.9-0.3,4.2-1c1.2-0.6,2.1-1.4,2.9-2.5v-5.7h-5.1c-1.8-0.1-3.5,0.4-4.9,1.6
	c-1,0.9-1.7,2.2-1.7,3.6c-0.1,1.1,0.4,2.2,1.2,3C179.2,89.6,180.4,89.9,181.6,89.9z"/>
<path class="st1" d="M206.1,78.2c0-5.9,1.3-10.7,3.9-14.3c2.4-3.6,6.5-5.6,10.8-5.5c1.9,0,3.9,0.4,5.5,1.4c1.7,1,3.1,2.4,4.1,4
	l0.7-4.7h8.8v36.5c0,4.9-1.6,8.9-4.7,11.8c-3.1,3-7.4,4.4-12.8,4.4c-2,0-4-0.3-6-0.8c-2-0.5-4-1.2-5.9-2.1l1.9-7.1
	c1.6,0.7,3.2,1.2,4.9,1.7c1.7,0.4,3.4,0.6,5.1,0.6c2.1,0.2,4.1-0.7,5.5-2.3c1.3-1.8,2-4,1.8-6.3V93c-1.1,1.4-2.4,2.4-3.9,3.2
	c-1.6,0.8-3.4,1.1-5.2,1.1c-4.2,0.2-8.2-1.7-10.7-5.1c-2.6-3.4-3.9-7.8-3.9-13.4V78.2z M216.2,78.9c-0.1,2.7,0.4,5.4,1.7,7.8
	c1.1,1.9,3.2,3,5.4,2.8c1.4,0,2.7-0.3,3.9-0.8c1.1-0.6,2-1.4,2.6-2.5V69.8c-0.6-1.1-1.5-2-2.6-2.6c-1.2-0.7-2.5-1-3.9-0.9
	c-2.3-0.1-4.4,1.2-5.4,3.3c-1.3,2.7-1.8,5.6-1.7,8.6L216.2,78.9z"/>
<path class="st1" d="M245.6,90.6l4.9-1V66.2l-5.4-1v-6.1h15.5v30.4l4.9,1v6.1h-19.8V90.6z M260.6,50.1h-10.1v-7.6h10.1V50.1z"/>
<path class="st1" d="M267.7,48.6v-6.1h15.5v47l4.9,1v6.1h-19.9v-6l4.9-1V49.6L267.7,48.6z"/>
<path class="st1" d="M309.3,97.4c-5.4,0-9.7-1.7-12.9-5.2c-3.3-3.6-5-8.4-4.8-13.2v-1.4c0-5.6,1.5-10.2,4.6-13.8
	c3-3.6,7.6-5.6,12.3-5.4c5,0,9,1.5,11.8,4.6c2.8,3.1,4.2,7.2,4.2,12.4v5.5H302l-0.1,0.2c0.1,2.3,1,4.4,2.5,6.1
	c1.6,1.6,3.7,2.5,6,2.4c1.9,0,3.8-0.2,5.6-0.7c1.7-0.5,3.3-1.3,4.8-2.1l2.7,6.2c-1.8,1.4-3.8,2.4-6,3.1
	C314.9,97,312.1,97.4,309.3,97.4z M308.4,66.2c-1.7-0.1-3.4,0.7-4.4,2.1c-1.2,1.7-1.9,3.6-2,5.7l0.1,0.2h12.4v-0.9
	c0.1-1.8-0.4-3.7-1.5-5.1C311.9,66.8,310.2,66.1,308.4,66.2z"/>
<path class="st1" d="M362.4,65.2l-3.5,0.7l5,16.8l0.7,3.5h0.2l0.7-3.5l4.9-16.8l-3.6-0.7v-6.1h17v6.1l-3.2,0.5l-11,30.9h-9.6
	l-11.1-31l-3.3-0.5v-6.1h17L362.4,65.2z"/>
<path class="st1" d="M404.4,97.4c-5.4,0-9.7-1.7-12.9-5.2c-3.3-3.6-5-8.3-4.9-13.2v-1.4c0-5.6,1.5-10.2,4.6-13.8
	c3-3.6,7.6-5.6,12.3-5.4c5,0,9,1.5,11.8,4.6c2.8,3.1,4.2,7.2,4.2,12.4v5.5h-22.4l-0.1,0.2c0.1,2.3,1,4.4,2.5,6.1
	c1.6,1.6,3.7,2.5,6,2.4c1.9,0,3.8-0.2,5.6-0.7c1.7-0.5,3.3-1.3,4.9-2.1l2.7,6.2c-1.8,1.4-3.8,2.4-6,3.1
	C410,97,407.2,97.4,404.4,97.4z M403.5,66.2c-1.7-0.1-3.4,0.7-4.4,2.2c-1.2,1.7-1.9,3.6-2,5.7l0.1,0.2h12.4v-0.9
	c0.1-1.9-0.5-3.7-1.5-5.2C406.9,66.8,405.2,66.1,403.5,66.2z"/>
<path class="st1" d="M423.6,90.6l4.9-1V66.2l-5.4-1v-6.1h14.8l0.5,5.4c1.2-1.8,2.7-3.4,4.6-4.5c1.9-1.1,4-1.6,6.1-1.6
	c3.8,0,6.7,1.2,8.9,3.6c2.1,2.4,3.2,6.1,3.2,11.2v16.3l4.8,1v6.1h-19.3v-6l4.3-1V73.2c0-2.5-0.5-4.3-1.5-5.4
	c-1.2-1.2-2.9-1.8-4.6-1.6c-1.2,0-2.5,0.3-3.6,0.8c-1.1,0.5-2,1.3-2.7,2.3v20.2l4.1,1v6.1h-19L423.6,90.6z"/>
<path class="st1" d="M484.1,49.9v9.2h6.6v7.1h-6.6v19.1c-0.1,1.1,0.2,2.2,0.9,3.1c0.6,0.6,1.5,1,2.4,0.9c0.7,0,1.3,0,1.8-0.1
	s1.1-0.2,1.8-0.3l0.9,7.3c-1.1,0.3-2.2,0.6-3.4,0.8c-1.2,0.2-2.4,0.3-3.6,0.3c-3.5,0-6.1-1-8-2.9c-1.9-1.9-2.8-5-2.8-9.1V66.2h-5.5
	v-7.1h5.4v-9.2H484.1z"/>
<path class="st1" d="M521.8,91.9c-2.3,3.5-6.3,5.6-10.5,5.5c-4,0-7-1.3-9.3-3.8s-3.4-6.5-3.4-11.8V66.2l-4.1-1v-6.1h14.2v22.7
	c0,2.7,0.5,4.7,1.4,5.9c1,1.2,2.5,1.9,4.1,1.8c1.4,0,2.8-0.2,4.1-0.8c1.1-0.5,2.1-1.3,2.8-2.2V66.2l-4.4-1v-6.1h14.5v30.4l4.5,1v6.1
	h-13.4L521.8,91.9z"/>
<path class="st1" d="M540.6,90.6l4.8-1V66.2l-5.4-1v-6.1h14.8l0.5,5.5c0.8-1.8,1.9-3.3,3.4-4.6c1.4-1.1,3.1-1.7,4.8-1.6
	c0.6,0,1.1,0,1.7,0.1c0.5,0.1,1,0.2,1.5,0.3l-1.1,9.2l-4.2-0.1c-1.3,0-2.5,0.3-3.7,0.9c-1,0.6-1.7,1.4-2.2,2.4v18.3l4.8,1v6.1h-19.8
	V90.6z"/>
<path class="st1" d="M587,97.4c-5.4,0-9.7-1.7-12.9-5.2c-3.3-3.6-5-8.3-4.8-13.2v-1.4c0-5.6,1.5-10.2,4.6-13.8
	c3-3.6,7.6-5.6,12.3-5.4c5.1,0,9,1.5,11.8,4.6c2.8,3.1,4.2,7.2,4.1,12.4v5.5h-22.3l-0.1,0.2c0.1,2.3,1,4.4,2.5,6.1
	c1.6,1.6,3.7,2.5,6,2.4c1.9,0,3.8-0.2,5.6-0.7c1.7-0.5,3.3-1.3,4.8-2.1l2.7,6.2c-1.8,1.4-3.8,2.4-6,3.1
	C592.6,97,589.8,97.4,587,97.4z M586,66.2c-1.7-0.1-3.4,0.7-4.4,2.2c-1.2,1.7-1.9,3.6-2,5.7l0.1,0.2h12.4v-0.9
	c0.1-1.8-0.4-3.7-1.5-5.2C589.5,66.8,587.8,66.1,586,66.2z"/>
</svg>
