<svg id="Layer_1" data-name="Layer 1" xmlns="http://www.w3.org/2000/svg" viewBox="0 0 604 158"><defs><style>.cls-1{fill:#2698d4;}.cls-2{fill:#1d1e1c;}</style></defs><title>AgileVenture__BolzanoBozenBulsan</title><path class="cls-1" d="M127.93,59.37c-6.08-17.51-18.58-32.66-33.19-43.75A95.17,95.17,0,0,0,82.2,7.54c.61.06,1.23.13,1.84.21,2.66.34,2.63-3.84,0-4.18-3.89-.49-8.8-.26-14.18-.34-.57,0-1.14.09-1.7.15a48.87,48.87,0,0,0-17.55-1C40,3.73,30.55,8.82,22.71,16-4.33,40.6-4,88,18.39,115.61a50.87,50.87,0,0,0,20.26,15c8.69,3.55,18.19,4,27.4,2.72,1-.14,2-.31,3-.49,9.47,7.61,18.85,15.34,28.46,22.77,1.3,1,3.13-.38,3.13-1.81,0-9.07,0-18.14-.42-27.2A57.05,57.05,0,0,0,121,110.37C132.45,95.72,133.89,76.56,127.93,59.37Zm-64-51.2a35.36,35.36,0,0,1,7.7.56A63.88,63.88,0,0,1,98.35,27.29c13.42,15.45,20.22,38,14.37,58a42.53,42.53,0,0,1-4.48,10.16,56.09,56.09,0,0,0-.48-18.8C107.45,56.29,97.18,35.2,80.2,23.94a39.28,39.28,0,0,0-26-6.46,56.08,56.08,0,0,1,9-1.9c.66-.09.67-1.13,0-1.05a57.55,57.55,0,0,0-15.58,4.26,46.52,46.52,0,0,0-14.86,7.67,49.94,49.94,0,0,1,4.3-4.81A50.36,50.36,0,0,1,63.89,8.17Zm39.77,87.18a46.64,46.64,0,0,1-8.26,13.79c-1.26.9-2.56,1.73-3.9,2.51-.08-.38-.17-.76-.25-1.14-.54-2.63-4.56-1.52-4,1.11.14.68.3,1.36.46,2-1.23.59-2.49,1.12-3.77,1.61a59.54,59.54,0,0,1-14.07,3.42,37.75,37.75,0,0,1-2.75-4.49c-1.23-2.4-4.82-.29-3.59,2.1.48.95,1,1.87,1.58,2.78-1.29.05-2.58.08-3.87.06a48.87,48.87,0,0,1-10.5-4.19c-17.94-9.75-28.59-31.28-29.56-51.22a59.27,59.27,0,0,1,.27-9c.38-.73.75-1.44,1.13-2.14C27.42,43.6,34.23,35.2,44.29,32.33c28.43-8.12,52.44,16.36,58.64,42.33A53.54,53.54,0,0,1,104,94.27C103.91,94.63,103.79,95,103.66,95.35ZM88.82,117.69c.08.28.17.55.25.83-1.24.41-2.5.76-3.78,1.06.51-.33,1-.67,1.49-1C87.46,118.29,88.14,118,88.82,117.69Zm-6.19,6.66a48.61,48.61,0,0,1-5.84,2.38c-.55-.55-1.1-1.11-1.64-1.68A53.62,53.62,0,0,0,82.63,124.35Zm-10.35,3.7c-.68.17-1.36.32-2,.46l-2.74-2.18c.78-.11,1.55-.23,2.33-.38l.44-.1C70.93,126.6,71.6,127.33,72.28,128.05Zm-45-24.56c-.43-.66-.86-1.31-1.27-2a61,61,0,0,1-9.12-35.81c.09-.3.19-.6.29-.9a68,68,0,0,0,2.28,14.07C23.63,94.41,33,108.74,46.56,117.21a61.4,61.4,0,0,1-6.82-2.16c-2.24-1.77-4.37-3.63-6.38-5.48S29.23,105.65,27.24,103.49ZM15.7,70.06a63.07,63.07,0,0,0,2.9,17.8A67.36,67.36,0,0,1,15,74.25,38,38,0,0,1,15.7,70.06Zm35.56,52.43c1.83.29,3.67.49,5.51.63l.21.18,2.86,2.24h-.16A40,40,0,0,1,51.26,122.49Zm13.68,1.8c1.48.25,3,.45,4.47.58l0,.06c-1,.2-2.07.36-3.11.48ZM85.31,37.84c-10.75-8.93-24.4-13-38.21-10.45a33.9,33.9,0,0,0-11.53,4.05,40.83,40.83,0,0,0-11,10.41l-.41.54c.5-1.46,1.06-2.9,1.68-4.31A51.33,51.33,0,0,1,47.55,20a39,39,0,0,1,8.58-1.66c24.1-1.83,42,20.79,48.07,41.83a66.11,66.11,0,0,1,2.12,10.51C102.6,57.8,95,45.88,85.31,37.84Zm-57-4.75c.68-1.2,1.4-2.37,2.17-3.51a49.7,49.7,0,0,1,7.68-5.5A51.92,51.92,0,0,0,28.34,33.09Zm-10.82,20a69,69,0,0,0-2.82,6.42,47.35,47.35,0,0,1,4.65-15.6A62.4,62.4,0,0,0,17.52,53.12Zm3,41.76a36.48,36.48,0,0,1-5.15-12,25.15,25.15,0,0,1-.51-4.17A73.49,73.49,0,0,0,20.54,94.88Zm40.3,34.74a2.31,2.31,0,0,0,1.31-2.28l2.61,2.08c-1.17.14-2.33.23-3.49.31Zm19.2.26a49,49,0,0,0,10.84-5.71c.48,1.49,1,3,1.39,4.48a59.47,59.47,0,0,1-11,2.31C80.83,130.61,80.43,130.25,80,129.88Zm12.55-14.07c1.2-.66,2.39-1.36,3.54-2.1a33.09,33.09,0,0,1-2.83,3.18L93,117Zm1.75,5.64c.38-.32.75-.65,1.12-1l.32-.15c.15,2.3.26,4.59.36,6.89C95.57,125.27,95,123.36,94.34,121.45Zm8.88-22.78a41.37,41.37,0,0,1-1.6,5.22c-1,1-2,1.91-3,2.79A51.51,51.51,0,0,0,103.22,98.67Zm2,7.57c.65-.68,1.29-1.37,1.91-2.1A48.7,48.7,0,0,0,117.73,82a42.87,42.87,0,0,1-3.24,13.74A39.62,39.62,0,0,1,102.94,111,42.14,42.14,0,0,0,105.25,106.24ZM8.14,49.92C12.37,30.68,26,13.12,45.38,7.65a43.34,43.34,0,0,1,4.4-1A64.23,64.23,0,0,0,30.45,17.74C18.87,27.27,10.53,41.24,7.07,56.13,7.34,54,7.7,51.94,8.14,49.92ZM24.78,29.39q1.7-2.09,3.56-4A56.25,56.25,0,0,0,21,38.85a46.38,46.38,0,0,0-7.6,24.36,59.24,59.24,0,0,0-2.14,9.15,31.58,31.58,0,0,0,1.94,17.33,56.51,56.51,0,0,0,8.7,13.84,42.73,42.73,0,0,1-9.88-16C5.25,68,12.12,45,24.78,29.39Zm31.36,100.5c-20.83-.21-35.07-13.36-42.79-30.57a49.69,49.69,0,0,0,14.44,14.37A56.79,56.79,0,0,0,38.18,119c1.23.91,2.47,1.81,3.73,2.67l1.11.73,0,0a48.55,48.55,0,0,0,14.82,7.47Zm19,2.52,1.52,0a81.2,81.2,0,0,0,18.87,13.88,2.25,2.25,0,0,0,1,.26c0,1,0,2.06,0,3.08C89.32,144,82.21,138.17,75.09,132.41ZM94.53,141a79.54,79.54,0,0,1-12.24-9.06,61.37,61.37,0,0,0,10.27-2.27A47.4,47.4,0,0,1,94.53,141Zm13.26-19.76a58.31,58.31,0,0,1-7.57,4.33c-.12-2.45-.25-4.9-.43-7.34a45.25,45.25,0,0,0,4.51-3,44.49,44.49,0,0,0,14.78-19.75c3.49-9.1,3.42-18.89,2-28.38a91.87,91.87,0,0,0-10.28-29.4A82.57,82.57,0,0,0,97.17,18.85c1.24,1,2.46,2,3.64,3.11,14,12.45,25.44,29.28,28.84,48A50.93,50.93,0,0,1,107.79,121.22Z"/><path class="cls-1" d="M185.35,123.88a11,11,0,0,1-1.87,6.71,6.3,6.3,0,0,1-5.4,2.52,5.67,5.67,0,0,1-2.85-.69,5.75,5.75,0,0,1-2-2l-.37,2.3h-4.35V109.25l-2.69-.52v-3.06h7.72V116a5.63,5.63,0,0,1,1.95-1.73,5.34,5.34,0,0,1,2.6-.61,6.18,6.18,0,0,1,5.43,2.7,12.39,12.39,0,0,1,1.87,7.19Zm-5-.37a9.68,9.68,0,0,0-.81-4.34,2.82,2.82,0,0,0-2.74-1.61,3.77,3.77,0,0,0-2,.49,3.47,3.47,0,0,0-1.28,1.42v7.93a3.16,3.16,0,0,0,1.29,1.32,4.15,4.15,0,0,0,2,.45,2.87,2.87,0,0,0,2.74-1.38,8,8,0,0,0,.78-3.91Z"/><path class="cls-1" d="M187.69,123.18A10.09,10.09,0,0,1,190,116.3a9.21,9.21,0,0,1,13,0,10.08,10.08,0,0,1,2.34,6.89v.37a10,10,0,0,1-2.34,6.89,9.22,9.22,0,0,1-13,0,10,10,0,0,1-2.34-6.89Zm5.05.37a8.2,8.2,0,0,0,.9,4.12,3.11,3.11,0,0,0,2.91,1.55,3.08,3.08,0,0,0,2.86-1.56,8.07,8.07,0,0,0,.91-4.11v-.37a8.11,8.11,0,0,0-.92-4.08,3.09,3.09,0,0,0-2.89-1.57,3.06,3.06,0,0,0-2.87,1.57,8.22,8.22,0,0,0-.9,4.08Z"/><path class="cls-1" d="M206.67,108.73v-3.06h7.75v23.52l2.44.52v3h-9.93v-3l2.44-.52V109.25Z"/><path class="cls-1" d="M225.2,128.86h5.22l.21-2.5h3.86v6.38H218.93v-3l8.91-11.87h-4.58l-.19,2.48h-3.88V114h15v2.9Z"/><path class="cls-1" d="M248.94,132.74a10,10,0,0,1-.37-1,8.56,8.56,0,0,1-.24-1,6.91,6.91,0,0,1-2.19,1.69,6.63,6.63,0,0,1-2.95.64,6.18,6.18,0,0,1-4.37-1.5,5.3,5.3,0,0,1-1.61-4.09,4.64,4.64,0,0,1,2.11-4.08,11,11,0,0,1,6.19-1.44h2.58v-1.84a2.78,2.78,0,0,0-.78-2.1,3.24,3.24,0,0,0-2.3-.74,5.18,5.18,0,0,0-1.54.2,4.14,4.14,0,0,0-1.09.47l-.33,2h-3.81l0-4.17a14.3,14.3,0,0,1,3.18-1.58,11.4,11.4,0,0,1,3.9-.64,8.87,8.87,0,0,1,5.65,1.71,5.85,5.85,0,0,1,2.17,4.87V128c0,.29,0,.57,0,.82a4.32,4.32,0,0,0,.06.73l1.54.21v3Zm-4.38-3.38a4.34,4.34,0,0,0,2.07-.5,3.9,3.9,0,0,0,1.46-1.24v-2.86h-2.58a3.48,3.48,0,0,0-2.44.76,2.36,2.36,0,0,0-.83,1.81,1.87,1.87,0,0,0,.61,1.49A2.51,2.51,0,0,0,244.56,129.36Z"/><path class="cls-1" d="M256.2,129.71l2.43-.52V117.54l-2.69-.52v-3h7.39l.23,2.69a6.82,6.82,0,0,1,2.3-2.24,6,6,0,0,1,3.06-.8,5.63,5.63,0,0,1,4.43,1.79q1.59,1.78,1.59,5.6v8.18l2.42.52v3h-9.65v-3l2.16-.52V121a3.8,3.8,0,0,0-.76-2.68,3,3,0,0,0-2.3-.79,3.91,3.91,0,0,0-1.8.41,3.59,3.59,0,0,0-1.33,1.15v10.07l2,.52v3H256.2Z"/><path class="cls-1" d="M278.8,123.18a10.09,10.09,0,0,1,2.34-6.88,9.21,9.21,0,0,1,13,0,10.08,10.08,0,0,1,2.34,6.89v.37a10,10,0,0,1-2.34,6.89,8.15,8.15,0,0,1-6.46,2.67,8.24,8.24,0,0,1-6.52-2.67,10,10,0,0,1-2.34-6.89Zm5.05.37a8.2,8.2,0,0,0,.9,4.12,3.11,3.11,0,0,0,2.91,1.55,3.07,3.07,0,0,0,2.86-1.56,8.07,8.07,0,0,0,.91-4.11v-.37a8.11,8.11,0,0,0-.92-4.08,3.09,3.09,0,0,0-2.89-1.57,3.06,3.06,0,0,0-2.87,1.57,8.22,8.22,0,0,0-.9,4.08Z"/><path class="cls-1" d="M325.44,123.88a11,11,0,0,1-1.86,6.71,6.32,6.32,0,0,1-5.4,2.52,5.69,5.69,0,0,1-2.86-.69,5.92,5.92,0,0,1-2-2l-.36,2.3h-4.36V109.25l-2.68-.52v-3.06h7.71V116a5.63,5.63,0,0,1,2-1.73,5.34,5.34,0,0,1,2.6-.61,6.21,6.21,0,0,1,5.44,2.7,12.47,12.47,0,0,1,1.86,7.19Zm-5-.37a9.83,9.83,0,0,0-.8-4.34,2.84,2.84,0,0,0-2.75-1.61,3.79,3.79,0,0,0-2,.49,3.47,3.47,0,0,0-1.28,1.42v7.93a3.16,3.16,0,0,0,1.29,1.32,4.16,4.16,0,0,0,2,.45,2.87,2.87,0,0,0,2.73-1.38,8,8,0,0,0,.78-3.91Z"/><path class="cls-1" d="M327.78,123.18a10.09,10.09,0,0,1,2.34-6.88,9.21,9.21,0,0,1,13,0,10.08,10.08,0,0,1,2.35,6.89v.37a10,10,0,0,1-2.35,6.89,8.15,8.15,0,0,1-6.46,2.67,8.24,8.24,0,0,1-6.52-2.67,10,10,0,0,1-2.34-6.89Zm5.05.37a8.2,8.2,0,0,0,.9,4.12,3.11,3.11,0,0,0,2.91,1.55,3.07,3.07,0,0,0,2.86-1.56,8.07,8.07,0,0,0,.91-4.11v-.37a8,8,0,0,0-.92-4.08,3.09,3.09,0,0,0-2.89-1.57,3.06,3.06,0,0,0-2.87,1.57,8.22,8.22,0,0,0-.9,4.08Z"/><path class="cls-1" d="M354.06,128.86h5.23l.2-2.5h3.86v6.38H347.8v-3l8.91-11.87h-4.58l-.2,2.48h-3.87V114h15v2.9Z"/><path class="cls-1" d="M374.57,133.11a8.43,8.43,0,0,1-6.48-2.61,9.32,9.32,0,0,1-2.42-6.61v-.69a10.34,10.34,0,0,1,2.29-6.89,8.54,8.54,0,0,1,12-.4,8.86,8.86,0,0,1,2.09,6.2v2.76H370.91l0,.1a4.84,4.84,0,0,0,1.24,3.05,3.83,3.83,0,0,0,3,1.2,9.57,9.57,0,0,0,2.79-.34,12.24,12.24,0,0,0,2.42-1.07l1.37,3.13a10,10,0,0,1-3,1.54A12.56,12.56,0,0,1,374.57,133.11Zm-.45-15.58a2.62,2.62,0,0,0-2.22,1.07,5.58,5.58,0,0,0-1,2.83l.05.09h6.19v-.46a4.07,4.07,0,0,0-.75-2.57A2.71,2.71,0,0,0,374.12,117.53Z"/><path class="cls-1" d="M384.2,129.71l2.42-.52V117.54l-2.68-.52v-3h7.39l.23,2.69a6.82,6.82,0,0,1,2.3-2.24,6,6,0,0,1,3.06-.8,5.63,5.63,0,0,1,4.43,1.79q1.59,1.78,1.59,5.6v8.18l2.42.52v3h-9.65v-3l2.16-.52V121a3.8,3.8,0,0,0-.76-2.68,3.06,3.06,0,0,0-2.3-.79,3.91,3.91,0,0,0-1.8.41,3.59,3.59,0,0,0-1.33,1.15v10.07l2,.52v3H384.2Z"/><path class="cls-1" d="M433.76,123.88a11,11,0,0,1-1.87,6.71,6.32,6.32,0,0,1-5.4,2.52,5.69,5.69,0,0,1-2.86-.69,5.92,5.92,0,0,1-2-2l-.36,2.3h-4.36V109.25l-2.68-.52v-3.06h7.71V116a5.72,5.72,0,0,1,2-1.73,5.37,5.37,0,0,1,2.6-.61,6.21,6.21,0,0,1,5.44,2.7,12.47,12.47,0,0,1,1.87,7.19Zm-5-.37a9.83,9.83,0,0,0-.8-4.34,2.84,2.84,0,0,0-2.75-1.61,3.79,3.79,0,0,0-2,.49,3.47,3.47,0,0,0-1.28,1.42v7.93a3.16,3.16,0,0,0,1.29,1.32,4.16,4.16,0,0,0,2,.45,2.87,2.87,0,0,0,2.73-1.38,8,8,0,0,0,.78-3.91Z"/><path class="cls-1" d="M449.19,130.37a6.06,6.06,0,0,1-5.24,2.74,5.89,5.89,0,0,1-4.64-1.9q-1.68-1.91-1.68-5.91v-7.76l-2.06-.52v-3h7.11v11.36a4.85,4.85,0,0,0,.69,2.94,2.38,2.38,0,0,0,2,.9,5.06,5.06,0,0,0,2.07-.39,3.66,3.66,0,0,0,1.42-1.12V117.54l-2.21-.52v-3H454v15.22l2.26.52v3h-6.69Z"/><path class="cls-1" d="M457.67,108.73v-3.06h7.75v23.52l2.44.52v3h-9.93v-3l2.43-.52V109.25Z"/><path class="cls-1" d="M484.78,120.42h-3.39l-.54-2.34a4.26,4.26,0,0,0-1.31-.69,5,5,0,0,0-1.73-.28,3.4,3.4,0,0,0-2.12.6,1.84,1.84,0,0,0-.77,1.5,1.69,1.69,0,0,0,.74,1.41,7.92,7.92,0,0,0,3,1,12,12,0,0,1,5.15,2,4.48,4.48,0,0,1,1.68,3.7,4.93,4.93,0,0,1-2.17,4.14,9.39,9.39,0,0,1-5.72,1.61,11.72,11.72,0,0,1-4-.64,9.93,9.93,0,0,1-3.21-1.81l0-4.22h3.53l.69,2.45a2.81,2.81,0,0,0,1.23.56,6.68,6.68,0,0,0,1.63.19,4.13,4.13,0,0,0,2.34-.56,1.73,1.73,0,0,0,.8-1.51,1.78,1.78,0,0,0-.81-1.44,8.34,8.34,0,0,0-3-1.07,11.82,11.82,0,0,1-5-2,4.34,4.34,0,0,1-1.69-3.62,5.24,5.24,0,0,1,1.94-4.07,8.12,8.12,0,0,1,5.52-1.7,13.87,13.87,0,0,1,4.12.59,8.57,8.57,0,0,1,3.06,1.51Z"/><path class="cls-1" d="M499.66,132.74a10,10,0,0,1-.37-1,8.56,8.56,0,0,1-.24-1,6.91,6.91,0,0,1-2.19,1.69,6.63,6.63,0,0,1-2.95.64,6.14,6.14,0,0,1-4.36-1.5,5.31,5.31,0,0,1-1.62-4.09,4.64,4.64,0,0,1,2.11-4.08,11,11,0,0,1,6.19-1.44h2.58v-1.84a2.78,2.78,0,0,0-.78-2.1,3.24,3.24,0,0,0-2.3-.74,5.18,5.18,0,0,0-1.54.2,4.14,4.14,0,0,0-1.09.47l-.33,2H489l0-4.17a14.52,14.52,0,0,1,3.18-1.58,11.4,11.4,0,0,1,3.9-.64,8.87,8.87,0,0,1,5.65,1.71,5.83,5.83,0,0,1,2.17,4.87V128c0,.29,0,.57,0,.82a4.32,4.32,0,0,0,.06.73l1.54.21v3Zm-4.38-3.38a4.41,4.41,0,0,0,2.08-.5,3.94,3.94,0,0,0,1.45-1.24v-2.86h-2.58a3.5,3.5,0,0,0-2.44.76,2.36,2.36,0,0,0-.83,1.81,1.87,1.87,0,0,0,.62,1.49A2.48,2.48,0,0,0,495.28,129.36Z"/><path class="cls-1" d="M506.92,129.71l2.43-.52V117.54l-2.69-.52v-3h7.39l.23,2.69a6.82,6.82,0,0,1,2.3-2.24,6,6,0,0,1,3.06-.8,5.63,5.63,0,0,1,4.43,1.79q1.59,1.78,1.59,5.6v8.18l2.42.52v3h-9.65v-3l2.16-.52V121a3.8,3.8,0,0,0-.76-2.68,3,3,0,0,0-2.3-.79,3.91,3.91,0,0,0-1.8.41,3.67,3.67,0,0,0-1.33,1.15v10.07l2,.52v3h-9.52Z"/><path class="cls-2" d="M190.39,75.41a18.67,18.67,0,0,1-.73-1.93,14,14,0,0,1-.48-2,13.92,13.92,0,0,1-4.38,3.36,13,13,0,0,1-5.9,1.29q-5.51,0-8.74-3A10.58,10.58,0,0,1,166.93,65a9.27,9.27,0,0,1,4.22-8.15q4.22-2.89,12.39-2.89h5.15V50.25a5.55,5.55,0,0,0-1.55-4.2,6.41,6.41,0,0,0-4.61-1.5,11.11,11.11,0,0,0-3.08.4,8.26,8.26,0,0,0-2.18,1l-.65,4H169l0-8.33a27.87,27.87,0,0,1,6.35-3.15,22.88,22.88,0,0,1,7.8-1.29q7,0,11.3,3.42t4.34,9.73V65.83c0,.58,0,1.12,0,1.63a11.35,11.35,0,0,0,.12,1.46l3.08.41v6.08Zm-8.76-6.77a8.75,8.75,0,0,0,4.16-1,8.08,8.08,0,0,0,2.9-2.48V59.44h-5.15A7,7,0,0,0,178.66,61,4.74,4.74,0,0,0,177,64.58a3.77,3.77,0,0,0,1.22,3A5,5,0,0,0,181.63,68.64Z"/><path class="cls-2" d="M206.1,56.94q0-8.88,3.86-14.33a12.49,12.49,0,0,1,10.81-5.45,10.69,10.69,0,0,1,5.54,1.41,12.28,12.28,0,0,1,4.08,4l.73-4.72h8.79V74.3q0,7.42-4.66,11.85t-12.78,4.42a25.4,25.4,0,0,1-6-.78,28,28,0,0,1-5.88-2.13l1.87-7.12a30.85,30.85,0,0,0,4.85,1.65,20.7,20.7,0,0,0,5.12.61,6.68,6.68,0,0,0,5.53-2.26,9.63,9.63,0,0,0,1.84-6.28V71.8A11.35,11.35,0,0,1,225.86,75a11.52,11.52,0,0,1-5.16,1.11A12.72,12.72,0,0,1,210,71.05Q206.09,66,206.1,57.67Zm10.1.73a15.42,15.42,0,0,0,1.66,7.76,5.78,5.78,0,0,0,5.4,2.83,8.39,8.39,0,0,0,3.93-.85,6.6,6.6,0,0,0,2.58-2.48V48.61A7,7,0,0,0,227.19,46a7.49,7.49,0,0,0-3.86-.94,5.69,5.69,0,0,0-5.41,3.3,18.54,18.54,0,0,0-1.72,8.6Z"/><path class="cls-2" d="M245.65,69.33l4.88-1V45l-5.4-1v-6.1h15.5V68.29l4.85,1v6.08H245.65Zm15-40.46h-10.1v-7.6h10.1Z"/><path class="cls-2" d="M267.73,27.37v-6.1h15.5v47l4.88,1v6.08H268.25V69.33l4.88-1V28.42Z"/><path class="cls-2" d="M309.32,76.14q-8.1,0-12.94-5.21a18.64,18.64,0,0,1-4.84-13.22V56.32q0-8.37,4.58-13.78a15.22,15.22,0,0,1,12.3-5.38q7.57,0,11.77,4.58t4.18,12.39v5.52H302l-.07.21A9.87,9.87,0,0,0,304.42,66a7.74,7.74,0,0,0,6,2.39,19.52,19.52,0,0,0,5.58-.67,26.38,26.38,0,0,0,4.84-2.14l2.73,6.25a20,20,0,0,1-6,3.09A25.6,25.6,0,0,1,309.32,76.14ZM308.42,45A5.27,5.27,0,0,0,304,47.12a11.25,11.25,0,0,0-2,5.66l.1.17h12.39v-.9A8.09,8.09,0,0,0,313,46.9,5.4,5.4,0,0,0,308.42,45Z"/><path class="cls-2" d="M362.4,44l-3.53.66,4.95,16.8.66,3.54h.21l.72-3.54,4.88-16.76-3.6-.7v-6.1h17V44l-3.25.52-11,30.93h-9.65L348.67,44.48,345.41,44v-6.1h17Z"/><path class="cls-2" d="M404.38,76.14q-8.1,0-12.94-5.21a18.65,18.65,0,0,1-4.85-13.22V56.32q0-8.37,4.59-13.78a15.19,15.19,0,0,1,12.3-5.38q7.57,0,11.76,4.58t4.19,12.39v5.52H397.08l-.07.21A9.82,9.82,0,0,0,399.48,66a7.74,7.74,0,0,0,6,2.39,19.4,19.4,0,0,0,5.57-.67,26.45,26.45,0,0,0,4.85-2.14l2.73,6.25a20.29,20.29,0,0,1-6,3.09A25.6,25.6,0,0,1,404.38,76.14ZM403.48,45a5.26,5.26,0,0,0-4.43,2.15,11.25,11.25,0,0,0-2,5.66l.11.17h12.38v-.9A8.15,8.15,0,0,0,408,46.9,5.4,5.4,0,0,0,403.48,45Z"/><path class="cls-2" d="M423.65,69.33l4.85-1V45l-5.37-1v-6.1h14.78l.45,5.38a13.56,13.56,0,0,1,4.6-4.48,11.88,11.88,0,0,1,6.13-1.6q5.67,0,8.85,3.58T461.13,52V68.29l4.84,1v6.08H446.66V69.33l4.33-1V52q0-3.78-1.52-5.36A6.15,6.15,0,0,0,444.86,45a7.69,7.69,0,0,0-3.59.82,7.38,7.38,0,0,0-2.67,2.3V68.29l4.08,1v6.08h-19Z"/><path class="cls-2" d="M484.11,28.66v9.2h6.57V45h-6.57V64.09a4.45,4.45,0,0,0,.89,3.13,3.22,3.22,0,0,0,2.43.93c.69,0,1.29,0,1.81-.08s1.1-.16,1.75-.3l.87,7.32a24.71,24.71,0,0,1-3.36.79,23.8,23.8,0,0,1-3.6.26q-5.22,0-8-2.88c-1.89-1.92-2.82-5-2.82-9.13V45h-5.51V37.86H474v-9.2Z"/><path class="cls-2" d="M521.82,70.65a12.16,12.16,0,0,1-10.48,5.49q-5.93,0-9.28-3.8t-3.35-11.82V45l-4.12-1v-6.1h14.22V60.59q0,4.09,1.37,5.88a4.8,4.8,0,0,0,4.06,1.79,10.06,10.06,0,0,0,4.14-.78,7.19,7.19,0,0,0,2.85-2.24V45l-4.42-1v-6.1h14.53V68.29l4.53,1v6.08H522.48Z"/><path class="cls-2" d="M540.61,69.33l4.85-1V45l-5.37-1v-6.1h14.78l.45,5.48a12,12,0,0,1,3.39-4.55,7.62,7.62,0,0,1,4.81-1.63,12.52,12.52,0,0,1,1.68.12,9.41,9.41,0,0,1,1.47.3l-1.07,9.23-4.16-.1a7.13,7.13,0,0,0-3.66.86A5.61,5.61,0,0,0,555.56,50V68.29l4.85,1v6.08h-19.8Z"/><path class="cls-2" d="M587,76.14q-8.1,0-12.94-5.21a18.65,18.65,0,0,1-4.85-13.22V56.32q0-8.37,4.59-13.78a15.19,15.19,0,0,1,12.3-5.38q7.58,0,11.76,4.58T602,54.13v5.52H579.65l-.07.21A9.82,9.82,0,0,0,582.05,66a7.74,7.74,0,0,0,6,2.39,19.45,19.45,0,0,0,5.57-.67,26.45,26.45,0,0,0,4.85-2.14l2.73,6.25a20.29,20.29,0,0,1-6,3.09A25.6,25.6,0,0,1,587,76.14ZM586.05,45a5.26,5.26,0,0,0-4.43,2.15,11.16,11.16,0,0,0-2,5.66l.1.17H592.1v-.9a8.15,8.15,0,0,0-1.5-5.15A5.41,5.41,0,0,0,586.05,45Z"/></svg>
