<svg id="Ebene_1" data-name="Ebene 1" xmlns="http://www.w3.org/2000/svg" viewBox="0 0 851 389.24"><title>logo</title><path d="M108.83,252l57.34,57.33H298.33V0h-111V57.17L130.16,0H0V309.33H108.83ZM171,305.33l82.81-90.13,39.74,90.13Zm123.36-8.07L256.71,212,294.33,20.19ZM293.43,4,253.94,205.31,191.33,61V4ZM189.33,66.46,252.1,211.11l-85.47,93-56.79-56.79ZM125.7,4,44,136.47,5,4ZM4,14.63,41.26,141.38,4,291Zm100.83,290.7H4.56L44.1,146.55l60.73,102.61Zm1.5-61.5L45.67,141.35l84-136.18,57.11,57.12-80,182Z" transform="translate(0 0)"/><path d="M559.78,309.33l81.31-59.08,30.86-95,.2-.61-30.86-95-.2-.62L560.3.38,559.78,0H459.27L378,59.08,346.9,154.67,378,250.25,458.74,309l.53.38Zm-3.54-4H463.62l111.77-89.22Zm4.43-1.59,19.08-88.87,56,34.29ZM667.94,154.67,638.27,246l-57-34.88L639.2,66.21ZM558.48,4,637,61,578.54,207.19,462.78,4Zm-98,4.1L574.37,208,438.84,153.65ZM381.36,61.55l75.29-54.7L434.94,152.67H351.75Zm0,186.23-29.61-91.11h82.88L457.29,303ZM438.88,158,574,212.11l-112.78,90Z" transform="translate(0 0)"/><path d="M851,0H722V309.33H851Zm-6,4L811.72,88.56,728.72,4ZM726,6.89l84.31,85.9-23.55,106L726,225.33Zm0,222.8,57.54-25.17L726,300.13Zm1.53,75.64,60.91-101.2,57.35,101.2ZM847,299.43l-56.43-99.58L813,99l34,87.06Zm0-124.35L814.6,92.17,847,9.79Z" transform="translate(0 0)"/><polygon points="38.38 371.44 50.88 371.44 50.88 367.35 38.38 367.35 38.38 356.37 52.63 356.37 52.63 352.22 33.47 352.22 33.47 388.58 53.01 388.58 53.01 384.44 38.38 384.44 38.38 371.44"/><polygon points="257.38 352.22 251.7 352.22 237.4 369.53 237.4 352.22 232.49 352.22 232.49 388.58 237.4 388.58 237.4 369.8 252.25 388.58 258.31 388.58 242.97 369.31 257.38 352.22"/><polygon points="381.01 356.37 391.27 356.37 391.27 388.58 396.23 388.58 396.23 356.37 406.5 356.37 406.5 352.22 381.01 352.22 381.01 356.37"/><rect x="413.72" y="352.22" width="4.96" height="36.36"/><rect x="773.59" y="352.22" width="4.96" height="36.36"/><polygon points="619.09 356.37 629.35 356.37 629.35 388.58 634.32 388.58 634.32 356.37 644.58 356.37 644.58 352.22 619.09 352.22 619.09 356.37"/><polygon points="0.29 356.37 10.55 356.37 10.55 388.58 15.52 388.58 15.52 356.37 25.78 356.37 25.78 352.22 0.29 352.22 0.29 356.37"/><polygon points="120.96 367.4 101.25 367.4 101.25 352.22 96.28 352.22 96.28 388.58 101.25 388.58 101.25 371.55 120.96 371.55 120.96 388.58 125.93 388.58 125.93 352.22 120.96 352.22 120.96 367.4"/><path d="M77.27,385.09c-8.68,0-12.83-7.15-12.83-14.91s4.31-14.53,12.72-14.53a13.71,13.71,0,0,1,8,2.35l2.4-3.65a17.51,17.51,0,0,0-10.32-2.78c-11.41,0-18,8.89-18,18.72s6.38,18.95,17.9,18.95c5.14,0,9.23-2,11.09-3.71L86.06,382a13.1,13.1,0,0,1-8.79,3" transform="translate(0 0)"/><path d="M147.1,352.22h-9.66v36.36h5V374.22h4c8.58,0,13.65-4,13.65-11.3s-5.56-10.7-13-10.7m-.6,18h-4.1V356.25h4.26c6.12,0,8.41,2.74,8.41,6.78,0,4.7-2.51,7.16-8.57,7.16" transform="translate(0 0)"/><path d="M175.05,352.22l-13.93,36.36H166l3.11-8.57h16.16l3.17,8.57h5.35l-14-36.36Zm-4.37,23.7,4.37-11.74c1-2.78,1.64-4.64,2.13-6.28h.11c.54,1.53,1,3.22,2.18,6.28l4.32,11.74Z" transform="translate(0 0)"/><path d="M214.85,373.34c4.77-1.56,7.45-5.13,7.45-10.42,0-7.16-5.56-10.7-13-10.7h-9.66v36.36h5V374.21h3.81a2.31,2.31,0,0,1,1.45.44c1,.68,2.23,2.21,4.58,5.55l5.84,8.37H226l-7.9-11.18a31.6,31.6,0,0,0-3.2-4.06m-6.14-3.15h-4.1V356.25h4.26c6.12,0,8.41,2.74,8.41,6.78,0,4.7-2.51,7.16-8.57,7.16" transform="translate(0 0)"/><path d="M292.5,367.51c-3.66-1.7-6.61-3.22-6.61-6.72,0-3.17,2.56-5.14,6.06-5.14a12,12,0,0,1,7.43,2.46l2.29-3.6c-1.26-1-4.26-2.94-9.77-2.94-5.74,0-10.81,3.43-10.81,9.44,0,5.79,3.87,8.24,8.35,10.43,4.2,2.07,8.3,3.77,8.3,7.92,0,3.06-2.78,5.79-7.1,5.79A11.72,11.72,0,0,1,282.4,382L280,385.53a15.35,15.35,0,0,0,10.54,3.71c7.27,0,12.12-4.09,12.12-10,0-7-5.34-9.45-10.15-11.74" transform="translate(0 0)"/><path d="M319.73,349.38a3.13,3.13,0,0,0,3.17-3.11,3.16,3.16,0,0,0-3.17-3.11,3.11,3.11,0,0,0-3.11,3.11,3.08,3.08,0,0,0,3.11,3.11" transform="translate(0 0)"/><path d="M330.16,349.38a3.11,3.11,0,1,0,0-6.22,3.15,3.15,0,0,0-3.11,3.11,3.11,3.11,0,0,0,3.11,3.11" transform="translate(0 0)"/><path d="M334.59,375.05c0,5.95-2.95,10-9.29,10-6.61,0-9.56-3.44-9.56-10.7V352.22h-4.91v22.66c0,8.74,4.31,14.36,14.36,14.36,9.56,0,14-5.56,14-14.68V352.22h-4.58Z" transform="translate(0 0)"/><path d="M358.14,352.22h-9v36.36h8.73c14.53,0,20.91-8.13,20.91-18.61s-6.33-17.75-20.64-17.75m.17,32.33H354.1V356.26H358c10.6,0,15.57,4.26,15.57,13.81s-5.24,14.48-15.29,14.48" transform="translate(0 0)"/><path d="M445.4,373.34c4.77-1.56,7.45-5.13,7.45-10.42,0-7.16-5.56-10.7-13-10.7H430.2v36.36h5V374.21H439a2.31,2.31,0,0,1,1.45.44c1.05.68,2.23,2.21,4.58,5.55l5.84,8.37h5.66l-7.9-11.18a31.6,31.6,0,0,0-3.2-4.06m-6.14-3.15h-4.1V356.25h4.26c6.12,0,8.41,2.74,8.41,6.78,0,4.7-2.51,7.16-8.57,7.16" transform="translate(0 0)"/><polygon points="604.53 352.22 599.63 352.22 599.63 388.58 618.73 388.58 618.73 384.49 604.53 384.49 604.53 352.22"/><path d="M573.06,352.22l-13.92,36.36h4.91l3.12-8.57h16.16l3.17,8.57h5.35l-14-36.36Zm-4.36,23.7,4.36-11.74c1-2.78,1.64-4.64,2.13-6.28h.11c.55,1.53,1,3.22,2.19,6.28l4.31,11.74Z" transform="translate(0 0)"/><path d="M477.13,351.57c-11.42,0-18,8.89-18,18.89s6.71,18.78,18.13,18.78,18-8.95,18-18.89-6.71-18.78-18.07-18.78m0,33.58c-8.42,0-12.84-6.88-12.84-14.8s4.54-14.69,12.95-14.69S490,362.54,490,370.46s-4.42,14.69-12.83,14.69" transform="translate(0 0)"/><polygon points="536.16 388.58 540.58 388.58 553.71 352.22 549.29 352.22 536.16 388.58"/><polygon points="509.12 352.22 504.21 352.22 504.21 388.58 523.32 388.58 523.32 384.49 509.12 384.49 509.12 352.22"/><path d="M744.71,352.22h-9v36.36h8.73c14.53,0,20.91-8.13,20.91-18.61s-6.32-17.75-20.63-17.75m.16,32.33h-4.21V356.26h3.94c10.59,0,15.56,4.26,15.56,13.81s-5.24,14.48-15.29,14.48" transform="translate(0 0)"/><path d="M664.66,351.57c-11.42,0-18,8.89-18,18.89s6.71,18.78,18.13,18.78,18-8.95,18-18.89-6.71-18.78-18.07-18.78m0,33.58c-8.41,0-12.84-6.88-12.84-14.8s4.54-14.69,12.95-14.69,12.72,6.88,12.72,14.8-4.42,14.69-12.83,14.69" transform="translate(0 0)"/><path d="M709.76,352.22l-13.93,36.36h4.92l3.11-8.57H720l3.16,8.57h5.35l-14-36.36Zm-4.37,23.7,4.37-11.74c1-2.78,1.64-4.64,2.13-6.28H712c.54,1.53,1,3.22,2.18,6.28l4.32,11.74Z" transform="translate(0 0)"/><polygon points="833.76 384.44 833.76 371.44 846.27 371.44 846.27 367.35 833.76 367.35 833.76 356.37 848.01 356.37 848.01 352.22 828.86 352.22 828.86 388.58 848.4 388.58 848.4 384.44 833.76 384.44"/><path d="M806.08,373.4h7.59V383c-1.69,1.26-4.69,2.07-8.46,2.07-9.12,0-13.22-7.21-13.22-14.91s4.15-14.52,13.27-14.52a13.67,13.67,0,0,1,9.23,2.94L817,355c-2.89-2.24-6.61-3.38-11.52-3.38-11.86,0-18.62,8.84-18.62,18.72s6.6,18.95,18.29,18.95c6.17,0,10.76-1.53,13.48-3.71V369.37h-12.5Z" transform="translate(0 0)"/></svg>