<?xml version="1.0" encoding="UTF-8"?>
<svg width="138px" height="24px" viewBox="0 0 138 24" version="1.1" xmlns="http://www.w3.org/2000/svg" xmlns:xlink="http://www.w3.org/1999/xlink">
    <!-- Generator: Sketch 53.1 (72631) - https://sketchapp.com -->
    <title>Group 44</title>
    <desc>Created with Sketch.</desc>
    <defs>
        <polygon id="path-1" points="0 0.141261475 25.8170596 0.141261475 25.8170596 23 0 23"></polygon>
    </defs>
    <g id="F2" stroke="none" stroke-width="1" fill="none" fill-rule="evenodd">
        <g id="Landing-Desktop-1" transform="translate(-168.000000, -63.000000)">
            <g id="Group">
                <g id="Group-44" transform="translate(168.000000, 63.000000)">
                    <g id="Group-3" transform="translate(0.000000, 0.922611)">
                        <mask id="mask-2" fill="white">
                            <use xlink:href="#path-1"></use>
                        </mask>
                        <g id="Clip-2"></g>
                        <path d="M12.9085206,0.141261475 L-1.84397163e-05,23.0000566 C8.35391064,19.99045 17.4631305,19.99045 25.8170596,23.0000566 L12.9085206,0.141261475 Z" id="Fill-1" fill="#1C1C1C" mask="url(#mask-2)"></path>
                    </g>
                    <path d="M32,23.922611 L45,0.922611036 C36.5868807,3.95080874 27.4131193,3.95080874 19,0.922611036 L32,23.922611 Z" id="Fill-4" fill="#1C1C1C"></path>
                    <path d="M56.2604745,5.85930563 L55.8459282,7.0795516 L57.9972577,7.0795516 L57.5827113,5.85930563 C57.3247884,5.11100831 57.0447359,4.33997592 56.9327531,3.45350427 L56.8879218,3.45350427 C56.7871945,4.33997592 56.5182067,5.11100831 56.2604745,5.85930563 M61,9.89948398 L61,9.92261104 L58.4677,9.92261104 L58.4677,9.89948398 C58.6580899,9.74994212 58.7477525,9.27799347 58.4677,8.48383403 L58.3669727,8.20748536 L55.4762132,8.20748536 L55.3752951,8.48383403 C55.0839871,9.27799347 55.1961607,9.74994212 55.3529748,9.89948398 L55.3529748,9.92261104 L53,9.92261104 L53,9.89948398 C53.3025635,9.62333131 53.7844521,8.92128809 54.0868248,8.03481644 L55.6891141,3.29239888 C55.9132705,2.61328672 55.7001788,2.12977454 55.4872779,1.9455421 L55.4872779,1.92261104 L58.4566353,1.92261104 L58.4566353,1.9455421 C58.2437344,2.14133807 58.0195779,2.61328672 58.2547991,3.29239888 L59.9019196,8.03481644 C60.2044831,8.92128809 60.686181,9.63489483 61,9.89948398" id="Fill-6" fill="#1C1C1C"></path>
                    <path d="M68,5.64632403 L68,5.66852482 C67.7456223,5.83427821 67.6352853,6.30933759 67.6352853,7.30385795 L67.6352853,9.12695712 C66.8941819,9.60220465 65.7772548,9.92261104 64.8926756,9.92261104 C62.5814348,9.92261104 61,8.32039096 61,6.02204426 C61,3.45860502 62.6588213,1.92261104 65.1139145,1.92261104 C65.9211071,1.92261104 66.6509132,2.04415098 67.2148371,2.22081663 L67.3807193,4.02209129 L67.3586895,4.03300355 C66.7947656,3.40329117 66.0316325,3.08288478 65.0805875,3.08288478 C63.5322915,3.08288478 62.6367916,4.17674429 62.6367916,5.91160471 C62.6367916,7.66847778 63.5322915,8.75123689 65.0032009,8.75123689 C65.4677085,8.75123689 65.8657503,8.67391039 66.2197326,8.508157 L66.2197326,6.70707048 C65.6445114,6.71817088 64.9920919,6.83971082 64.5720203,7.28165715 L64.5498023,7.2707449 L64.7267934,5.58009793 C64.9700621,5.62431137 65.3681039,5.64632403 66.0758802,5.64632403 L68,5.64632403 Z" id="Fill-8" fill="#1C1C1C"></path>
                    <path d="M68,9.89948398 C68.3050249,9.703884 68.6586379,9.13981913 68.6586379,8.19592183 L68.6586379,3.64910425 C68.6586379,2.69364342 68.3170681,2.14133807 68,1.9455421 L68,1.92261104 L71,1.92261104 L71,1.9455421 C70.6949751,2.14133807 70.3413621,2.70520695 70.3413621,3.64910425 L70.3413621,8.19592183 C70.3413621,9.15138266 70.6829319,9.703884 71,9.89948398 L71,9.92261104 L68,9.92261104 L68,9.89948398 Z" id="Fill-10" fill="#1C1C1C"></path>
                    <path d="M76.6077658,9.83154341 L73,9.83154341 L73,9.80867963 C73.2541874,9.61530625 73.5488649,9.05766238 73.5488649,8.12450989 L73.5488649,3.58411075 C73.5488649,2.68506017 73.2643965,2.1388482 73,1.94528106 L73,1.92261104 L75.489964,1.92261104 L75.489964,1.94528106 C75.2357766,2.1388482 74.9410991,2.69649207 74.9410991,3.62964456 L74.9410991,8.69358565 L75.9472937,8.69358565 C76.8313261,8.69358565 77.5426703,8.35217895 77.979755,7.66936554 L78,7.68079743 L77.7359496,9.92261104 C77.349564,9.84297531 77.0753045,9.83154341 76.6077658,9.83154341" id="Fill-12" fill="#1C1C1C"></path>
                    <path d="M84,7.68342334 L83.7215828,9.92261104 C83.3539706,9.85498328 83.0953558,9.83256841 82.5089026,9.83256841 L79,9.83256841 L79,9.80996196 C79.2486291,9.61876507 79.5368628,9.06739766 79.5368628,8.14474811 L79.5368628,3.70028238 C79.5368628,2.76632961 79.2584456,2.22645701 79,2.03506853 L79,2.01265366 L82.568648,2.01265366 C82.9662176,2.01265366 83.4037303,1.97893557 83.622402,1.92261104 L83.7913141,3.93669217 L83.7713425,3.94780381 C83.5326992,3.39662799 82.9861892,3.11519689 82.2108523,3.11519689 L80.8986528,3.11519689 L80.8986528,5.09555993 L81.6541873,5.09555993 C82.4792837,5.09555993 82.7573624,5.08425671 83.2048609,5.01682053 L82.9166272,6.90714095 L82.8964864,6.90714095 C82.7275743,6.40079486 82.3697786,6.19829474 81.8131135,6.19829474 L80.8986528,6.19829474 L80.8986528,8.7298336 L81.9820256,8.7298336 C82.8568817,8.7298336 83.5526708,8.35855145 83.9801977,7.67212011 L84,7.68342334 Z" id="Fill-14" fill="#1C1C1C"></path>
                    <path d="M89.6144478,9.89948398 C89.8274627,9.68075695 89.9957731,9.10532455 89.7153194,8.31116511 L88.0211343,3.48799886 C87.8192,2.91256645 87.4602269,2.29087994 87,1.9455421 L87,1.92261104 L89.6257194,1.92261104 L89.6257194,1.9455421 C89.4461373,2.16426913 89.3676179,2.61309073 89.5133851,3.05054479 L90.5008955,5.97435291 C90.6802866,6.51529074 90.9720119,7.49387861 91.0841552,8.33409617 L91.1292418,8.33409617 C91.2748179,7.48231509 91.5331104,6.50372721 91.7125015,5.96278939 L92.6551164,3.07367184 C92.8010746,2.61309073 92.7785313,2.16426913 92.5989493,1.9455421 L92.5989493,1.92261104 L95,1.92261104 L95,1.9455421 C94.607403,2.18720019 94.2820537,2.71677048 94.0575761,3.38431911 L92.3744716,8.31116511 C92.1052896,9.11669208 92.2623284,9.68075695 92.4755343,9.89948398 L92.4755343,9.92261104 L89.6144478,9.92261104 L89.6144478,9.89948398 Z" id="Fill-16" fill="#1C1C1C"></path>
                    <path d="M101,7.68342334 L100.721583,9.92261104 C100.353971,9.85498328 100.095356,9.83256841 99.5089026,9.83256841 L96,9.83256841 L96,9.80996196 C96.2486291,9.61876507 96.5368628,9.06739766 96.5368628,8.14474811 L96.5368628,3.70028238 C96.5368628,2.76632961 96.2584456,2.22645701 96,2.03506853 L96,2.01265366 L99.568648,2.01265366 C99.9662176,2.01265366 100.40373,1.97893557 100.622402,1.92261104 L100.791314,3.93669217 L100.771342,3.94780381 C100.532699,3.39662799 99.9861892,3.11519689 99.2108523,3.11519689 L97.8986528,3.11519689 L97.8986528,5.09555993 L98.6541873,5.09555993 C99.4792837,5.09555993 99.7573624,5.08425671 100.204861,5.01682053 L99.9166272,6.90714095 L99.8964864,6.90714095 C99.7275743,6.40079486 99.3697786,6.19829474 98.8131135,6.19829474 L97.8986528,6.19829474 L97.8986528,8.7298336 L98.9820256,8.7298336 C99.8568817,8.7298336 100.552671,8.35855145 100.980198,7.67212011 L101,7.68342334 Z" id="Fill-18" fill="#1C1C1C"></path>
                    <path d="M102,9.89948398 C102.26054,9.703884 102.562582,9.13981913 102.562582,8.19592183 L102.562582,3.59148261 C102.562582,2.96999209 102.385401,2.2332583 102,1.9455421 L102,1.92261104 L104.364548,1.92261104 C104.385477,2.1527056 104.447907,2.39455969 104.791629,3.02761373 L106.291553,5.81324752 C106.604059,6.38867993 106.937494,7.20596642 107.25,8.09224208 L107.291679,8.09224208 C107.14589,7.17147183 107.124962,6.36574887 107.124962,5.7211313 L107.124962,3.64910425 C107.124962,2.69364342 106.864599,2.14133807 106.593595,1.9455421 L106.593595,1.92261104 L109,1.92261104 L109,1.9455421 C108.728996,2.14133807 108.437418,2.70520695 108.437418,3.64910425 L108.437418,8.19592183 C108.437418,9.13981913 108.728996,9.703884 109,9.89948398 L109,9.92261104 L106.801991,9.92261104 C106.687595,9.61176778 106.489485,9.19724478 106.281266,8.82897588 L104.81238,6.19307995 C104.312582,5.30660829 104.041755,4.62769213 103.729249,3.56855155 L103.68757,3.56855155 C103.85411,4.66199072 103.875038,5.41028804 103.875038,6.23913806 L103.875038,8.19592183 C103.875038,9.15138266 104.135401,9.703884 104.406228,9.89948398 L104.406228,9.92261104 L102,9.92261104 L102,9.89948398 Z" id="Fill-20" fill="#1C1C1C"></path>
                    <path d="M116,4.00515318 L115.978346,4.01658507 C115.728307,3.56124696 115.217311,3.17430644 114.565286,3.17430644 L113.750023,3.17430644 L113.750023,8.12470365 C113.750023,9.10338996 114.054289,9.70637387 114.413153,9.89974725 L114.413153,9.92261104 L111.597767,9.92261104 L111.597767,9.89974725 C111.913137,9.70637387 112.260896,9.0917643 112.260896,8.12470365 L112.260896,3.17430644 L111.434714,3.17430644 C110.782689,3.17430644 110.271693,3.56124696 110.021654,4.01658507 L110,4.00515318 L110.184706,1.92261104 C110.684784,1.99081487 111.141368,2.01367866 111.673833,2.01367866 L114.326167,2.01367866 C114.858817,2.01367866 115.315401,1.99081487 115.815294,1.92261104 L116,4.00515318 Z" id="Fill-22" fill="#1C1C1C"></path>
                    <path d="M117.562582,6.51817254 L117.562582,3.60809028 C117.562582,2.68672047 117.26054,2.13611783 117,1.94499481 L117,1.92261104 L119.531266,1.92261104 L119.531266,1.94499481 C119.291654,2.13611783 118.999899,2.67543292 118.999899,3.60809028 L118.999899,6.6417616 C118.999899,8.16978915 119.427156,8.74277557 120.56243,8.74277557 C121.572844,8.74277557 122.031139,8.08006273 122.031139,6.6417616 L122.031139,3.60809028 C122.031139,2.68672047 121.729097,2.13611783 121.499949,1.94499481 L121.499949,1.92261104 L124,1.92261104 L124,1.94499481 C123.729173,2.13611783 123.437418,2.67543292 123.437418,3.60809028 L123.437418,6.51817254 C123.437418,8.79902198 122.458397,9.92261104 120.448034,9.92261104 C118.593747,9.92261104 117.562582,8.81030952 117.562582,6.51817254" id="Fill-24" fill="#1C1C1C"></path>
                    <path d="M132,9.4867697 L132,9.50921809 L129.700284,9.92261104 C129.554355,9.4867697 129.375,9.09563491 129.12822,8.68224197 L127.389298,5.72152666 L127.927936,5.72152666 C128.892518,5.72152666 129.431156,5.33039188 129.431156,4.33600398 C129.431156,3.52044229 128.892518,3.00641204 127.927936,3.01763624 L127.142518,3.0286702 L127.142518,8.05654046 C127.142518,8.93925709 127.456723,9.4755455 127.703504,9.66540567 L127.703504,9.68785407 L125,9.68785407 L125,9.66540567 C125.291667,9.4755455 125.605681,8.92803289 125.605681,8.01202414 L125.605681,3.55392465 C125.605681,2.67120801 125.291667,2.13491961 125,1.94486919 L125,1.92261104 L128.185795,1.92261104 C129.980872,1.92261104 131.024149,2.82758583 131.024149,4.28007323 C131.024149,5.46451154 130.440815,6.19066012 129.49839,6.4923818 L130.541667,8.17943592 C130.967993,8.86106818 131.461553,9.30794348 132,9.4867697" id="Fill-26" fill="#1C1C1C"></path>
                    <path d="M138,7.68342334 L137.721583,9.92261104 C137.353971,9.85498328 137.095356,9.83256841 136.508903,9.83256841 L133,9.83256841 L133,9.80996196 C133.248629,9.61876507 133.536863,9.06739766 133.536863,8.14474811 L133.536863,3.70028238 C133.536863,2.76632961 133.258446,2.22645701 133,2.03506853 L133,2.01265366 L136.568648,2.01265366 C136.966218,2.01265366 137.40373,1.97893557 137.622402,1.92261104 L137.791314,3.93669217 L137.771342,3.94780381 C137.532699,3.39662799 136.986189,3.11519689 136.210852,3.11519689 L134.898653,3.11519689 L134.898653,5.09555993 L135.654187,5.09555993 C136.479284,5.09555993 136.757362,5.08425671 137.204861,5.01682053 L136.916627,6.90714095 L136.896486,6.90714095 C136.727574,6.40079486 136.369779,6.19829474 135.813114,6.19829474 L134.898653,6.19829474 L134.898653,8.7298336 L135.982026,8.7298336 C136.856882,8.7298336 137.552671,8.35855145 137.980198,7.67212011 L138,7.68342334 Z" id="Fill-28" fill="#1C1C1C"></path>
                    <path d="M58.4052916,18.5053829 C58.4052916,17.7456995 58.0038611,17.2392438 57.1671994,17.2392438 L56.1858404,17.2392438 L56.1858404,19.7946496 L57.1671994,19.7946496 C58.0038611,19.7946496 58.4052916,19.2650664 58.4052916,18.5053829 L58.4052916,18.5053829 Z M56.1858404,14.0505724 L56.1858404,16.1226502 L56.9888914,16.1226502 C57.6356616,16.1226502 58.0260784,15.7541763 58.0260784,15.0176205 C58.0260784,14.3614233 57.6468652,14.0505724 56.9888914,14.0505724 L56.1858404,14.0505724 Z M60,18.56281 C60,20.0594413 58.9071747,20.922611 57.3903219,20.922611 L54,20.922611 L54,20.8996794 C54.2789505,20.680947 54.6579739,20.1629276 54.6579739,19.1268887 L54.6579739,14.7067696 C54.6579739,13.7628492 54.3569959,13.1987705 54,12.9455427 L54,12.922611 L57.0781403,12.922611 C58.7508941,12.922611 59.5985695,13.5670484 59.5985695,14.9368698 C59.5985695,15.8117994 58.9630028,16.5254236 58.3158528,16.6291059 L58.3158528,16.6636013 C59.2415736,16.7786514 60,17.6306494 60,18.56281 L60,18.56281 Z" id="Fill-30" fill="#1C1C1C"></path>
                    <path d="M67.3626541,16.9497614 C67.3626541,15.110208 66.4615618,14.0544015 64.9669762,14.0544015 C63.5163599,14.0544015 62.6373459,15.1863773 62.6373459,16.8843411 C62.6373459,18.6694084 63.4506864,19.7906352 65.0219847,19.7906352 C66.373623,19.7906352 67.3626541,18.6912769 67.3626541,16.9497614 M61,16.9933132 C61,14.5444055 62.5385551,12.922611 65.0768061,12.922611 C67.4285146,12.922611 69,14.5008537 69,16.8409746 C69,19.2681991 67.3626541,20.922611 64.9119676,20.922611 C62.4506163,20.922611 61,19.2246473 61,16.9933132" id="Fill-32" fill="#1C1C1C"></path>
                    <path d="M73.6077658,20.8315434 L70,20.8315434 L70,20.8086796 C70.2541874,20.6153063 70.5488649,20.0576624 70.5488649,19.1245099 L70.5488649,14.5841107 C70.5488649,13.6850602 70.2643965,13.1388482 70,12.9452811 L70,12.922611 L72.489964,12.922611 L72.489964,12.9452811 C72.2357766,13.1388482 71.9410991,13.6964921 71.9410991,14.6296446 L71.9410991,19.6935857 L72.9472937,19.6935857 C73.8313261,19.6935857 74.5426703,19.3521789 74.979755,18.6693655 L75,18.6807974 L74.7359496,20.922611 C74.349564,20.8429753 74.0753045,20.8315434 73.6077658,20.8315434" id="Fill-34" fill="#1C1C1C"></path>
                    <path d="M81,18.6886053 L80.7239031,20.922611 C80.267177,20.8436485 80.0973963,20.8325054 79.3009282,20.8325054 L75,20.8325054 L75,20.8098349 L78.6212633,14.1074333 L77.2939368,14.1074333 C76.4761331,14.1074333 75.8498071,14.3105073 75.4780617,14.8747724 L75.4567261,14.8634372 L75.7434908,12.922611 C76.1470588,12.9790952 76.5188042,12.9904304 77.3257594,12.9904304 L80.8193708,12.9904304 L80.8193708,13.0129088 L77.1984691,19.7153104 L78.8230473,19.7153104 C79.7894769,19.7153104 80.5539417,19.3204977 80.9788452,18.67727 L81,18.6886053 Z" id="Fill-36" fill="#1C1C1C"></path>
                    <path d="M84.2604745,16.8593056 L83.8459282,18.0795516 L85.9972577,18.0795516 L85.5827113,16.8593056 C85.3247884,16.1110083 85.0447359,15.3399759 84.9327531,14.4535043 L84.8879218,14.4535043 C84.7871945,15.3399759 84.5182067,16.1110083 84.2604745,16.8593056 M89,20.899484 L89,20.922611 L86.4677,20.922611 L86.4677,20.899484 C86.6580899,20.7499421 86.7477525,20.2779935 86.4677,19.483834 L86.3669727,19.2074854 L83.4762132,19.2074854 L83.3752951,19.483834 C83.0839871,20.2779935 83.1961607,20.7499421 83.3529748,20.899484 L83.3529748,20.922611 L81,20.922611 L81,20.899484 C81.3025635,20.6233313 81.7844521,19.9212881 82.0868248,19.0348164 L83.6891141,14.2923989 C83.9132705,13.6132867 83.7001788,13.1297745 83.4872779,12.9455421 L83.4872779,12.922611 L86.4566353,12.922611 L86.4566353,12.9455421 C86.2437344,13.1413381 86.0195779,13.6132867 86.2547991,14.2923989 L87.9019196,19.0348164 C88.2044831,19.9212881 88.686181,20.6348948 89,20.899484" id="Fill-38" fill="#1C1C1C"></path>
                    <path d="M90,20.899484 C90.2605402,20.703884 90.5625823,20.1398191 90.5625823,19.1959218 L90.5625823,14.5914826 C90.5625823,13.9699921 90.3854008,13.2332583 90,12.9455421 L90,12.922611 L92.3645485,12.922611 C92.3854768,13.1527056 92.4479072,13.3945597 92.7916287,14.0276137 L94.2915527,16.8132475 C94.604059,17.3886799 94.9374937,18.2059664 95.25,19.0922421 L95.2916793,19.0922421 C95.1458903,18.1714718 95.124962,17.3657489 95.124962,16.7211313 L95.124962,14.6491043 C95.124962,13.6936434 94.8645992,13.1413381 94.5935948,12.9455421 L94.5935948,12.922611 L97,12.922611 L97,12.9455421 C96.7289956,13.1413381 96.4374177,13.7052069 96.4374177,14.6491043 L96.4374177,19.1959218 C96.4374177,20.1398191 96.7289956,20.703884 97,20.899484 L97,20.922611 L94.8019915,20.922611 C94.687595,20.6117678 94.4894852,20.1972448 94.2812658,19.8289759 L92.8123796,17.1930799 C92.3125823,16.3066083 92.0417553,15.6276921 91.729249,14.5685516 L91.6875697,14.5685516 C91.8541097,15.6619907 91.875038,16.410288 91.875038,17.2391381 L91.875038,19.1959218 C91.875038,20.1513827 92.1354008,20.703884 92.4062278,20.899484 L92.4062278,20.922611 L90,20.922611 L90,20.899484 Z" id="Fill-40" fill="#1C1C1C"></path>
                    <path d="M104.362654,16.9497614 C104.362654,15.110208 103.461562,14.0544015 101.966976,14.0544015 C100.51636,14.0544015 99.6373459,15.1863773 99.6373459,16.8843411 C99.6373459,18.6694084 100.450686,19.7906352 102.021985,19.7906352 C103.373623,19.7906352 104.362654,18.6912769 104.362654,16.9497614 M98,16.9933132 C98,14.5444055 99.5385551,12.922611 102.076806,12.922611 C104.428515,12.922611 106,14.5008537 106,16.8409746 C106,19.2681991 104.362654,20.922611 101.911968,20.922611 C99.4506163,20.922611 98,19.2246473 98,16.9933132" id="Fill-42" fill="#1C1C1C"></path>
                </g>
            </g>
        </g>
    </g>
</svg>