<?xml version="1.0" encoding="utf-8"?>
<!-- Generator: Adobe Illustrator 22.0.1, SVG Export Plug-In . SVG Version: 6.00 Build 0)  -->
<svg version="1.1" id="Livello_1" xmlns="http://www.w3.org/2000/svg" xmlns:xlink="http://www.w3.org/1999/xlink" x="0px" y="0px"
	 viewBox="0 0 121.1 22.3" style="enable-background:new 0 0 121.1 22.3;" xml:space="preserve">
<style type="text/css">
	.st0{fill:#FFFFFF;}
	.st1{fill:#1D1D1B;}
</style>
<g>
	<rect x="12.7" y="6.6" class="st1" width="3.2" height="15.5"/>
	<path class="st1" d="M26.4,16.6h3.7v2.3c-0.8,0.4-2,0.6-3,0.6c-3.3,0-5.1-2.2-5.1-5.1c0-2.9,1.8-5.1,4.6-5.1c1.8,0,2.7,0.6,3.5,1.4
		l2.2-2.1c-1.3-1.5-3.1-2.1-5.6-2.1c-4.7,0-7.9,3.3-7.9,7.9c0,4.6,3.3,8,8.4,8c2.8,0,5.1-1.1,6-1.8v-6.7h-6.7V16.6z"/>
	<polygon class="st1" points="0,22.1 3.2,22.1 3.2,17.4 9.4,17.4 9.4,14.5 3.2,14.5 3.2,9.4 10,9.4 10,6.6 0,6.6 	"/>
	<path class="st1" d="M74.1,13.5c1.3-0.4,2.2-1.4,2.2-2.8c0-2.2-1.6-4-4.5-4h-6v15.5h6.3c3.2,0,5.2-2,5.2-4.8
		C77.2,15.4,76.2,14,74.1,13.5z M69,9.4h2.6c1,0,1.5,0.6,1.5,1.5c0,0.9-0.7,1.5-1.7,1.5H69V9.4z M71.9,19.3H69V15h2.8
		c1.5,0,2.3,0.9,2.3,2.1C74,18.4,73.2,19.3,71.9,19.3z"/>
	<polygon class="st1" points="45.9,14.5 39.2,14.5 39.2,6.6 36,6.6 36,22.1 39.2,22.1 39.2,17.4 45.9,17.4 45.9,22.1 49.1,22.1 
		49.1,6.6 45.9,6.6 	"/>
	<path class="st1" d="M98.9,6.5l-6.8,15.6h3.1l0.7-1.8h6.3l0.7,1.8h3.3L99.2,6.5H98.9z M101,17.7h-4.1l1.1-2.7
		c0.5-1.1,0.9-2.8,0.9-2.8s0.5,1.7,0.9,2.8L101,17.7z"/>
	<path class="st1" d="M118.1,6.6v6.5c0,1.1,0.2,2.8,0.2,2.8s-1.1-1.4-1.8-2.1l-7.8-7.3h-0.3v15.6h3v-6.5c0-1.1-0.2-2.8-0.2-2.8
		s1.1,1.4,1.8,2.1l7.8,7.3h0.3V6.6H118.1z"/>
	<polygon class="st1" points="82.9,17.1 89.1,17.1 89.1,14.3 82.9,14.3 82.9,9.4 89.9,9.4 89.9,6.6 79.7,6.6 79.7,22.1 90.3,22.1 
		90.3,19.3 82.9,19.3 	"/>
	<rect x="78.9" class="st1" width="10.6" height="2.4"/>
	<polygon class="st1" points="51.4,9.4 55.8,9.4 55.8,22.1 59,22.1 59,9.4 63.4,9.4 63.4,6.6 51.4,6.6 	"/>
</g>
</svg>
